<svg xmlns="http://www.w3.org/2000/svg" viewBox="0 0 800 350" font-family="'Segoe UI', system-ui, sans-serif">
  <rect width="800" height="350" fill="#0d1117" rx="8"/>
  <text x="400" y="25" text-anchor="middle" fill="#e6edf3" font-size="16" font-weight="600">Equity Curve: +828% over 733 Days (290 trades)</text>
  <text x="55" y="294" text-anchor="end" fill="#8b949e" font-size="10">+0%</text><line x1="60" y1="290" x2="740" y2="290" stroke="#21262d" stroke-width="0.5"/><text x="55" y="264.81210541478436" text-anchor="end" fill="#8b949e" font-size="10">+100%</text><line x1="60" y1="260.81210541478436" x2="740" y2="260.81210541478436" stroke="#21262d" stroke-width="0.5"/><text x="55" y="235.6242108295687" text-anchor="end" fill="#8b949e" font-size="10">+200%</text><line x1="60" y1="231.6242108295687" x2="740" y2="231.6242108295687" stroke="#21262d" stroke-width="0.5"/><text x="55" y="206.43631624435307" text-anchor="end" fill="#8b949e" font-size="10">+300%</text><line x1="60" y1="202.43631624435307" x2="740" y2="202.43631624435307" stroke="#21262d" stroke-width="0.5"/><text x="55" y="177.24842165913742" text-anchor="end" fill="#8b949e" font-size="10">+400%</text><line x1="60" y1="173.24842165913742" x2="740" y2="173.24842165913742" stroke="#21262d" stroke-width="0.5"/><text x="55" y="148.06052707392178" text-anchor="end" fill="#8b949e" font-size="10">+500%</text><line x1="60" y1="144.06052707392178" x2="740" y2="144.06052707392178" stroke="#21262d" stroke-width="0.5"/><text x="55" y="118.87263248870613" text-anchor="end" fill="#8b949e" font-size="10">+600%</text><line x1="60" y1="114.87263248870613" x2="740" y2="114.87263248870613" stroke="#21262d" stroke-width="0.5"/><text x="55" y="89.68473790349049" text-anchor="end" fill="#8b949e" font-size="10">+700%</text><line x1="60" y1="85.68473790349049" x2="740" y2="85.68473790349049" stroke="#21262d" stroke-width="0.5"/>
  <text x="133.3527403343267" y="335" text-anchor="middle" fill="#8b949e" font-size="9">2024-Q3</text><line x1="133.3527403343267" y1="60" x2="133.3527403343267" y2="290" stroke="#21262d" stroke-width="0.5"/><text x="222.2496990270185" y="335" text-anchor="middle" fill="#8b949e" font-size="9">2024-Q4</text><line x1="222.2496990270185" y1="60" x2="222.2496990270185" y2="290" stroke="#21262d" stroke-width="0.5"/><text x="311.1466577197103" y="335" text-anchor="middle" fill="#8b949e" font-size="9">2025-Q1</text><line x1="311.1466577197103" y1="60" x2="311.1466577197103" y2="290" stroke="#21262d" stroke-width="0.5"/><text x="398.1110738321262" y="335" text-anchor="middle" fill="#8b949e" font-size="9">2025-Q2</text><line x1="398.1110738321262" y1="60" x2="398.1110738321262" y2="290" stroke="#21262d" stroke-width="0.5"/><text x="486.04176123468" y="335" text-anchor="middle" fill="#8b949e" font-size="9">2025-Q3</text><line x1="486.04176123468" y1="60" x2="486.04176123468" y2="290" stroke="#21262d" stroke-width="0.5"/><text x="574.9387199273717" y="335" text-anchor="middle" fill="#8b949e" font-size="9">2025-Q4</text><line x1="574.9387199273717" y1="60" x2="574.9387199273717" y2="290" stroke="#21262d" stroke-width="0.5"/><text x="663.8356786200635" y="335" text-anchor="middle" fill="#8b949e" font-size="9">2026-Q1</text><line x1="663.8356786200635" y1="60" x2="663.8356786200635" y2="290" stroke="#21262d" stroke-width="0.5"/>
  <polyline points="60.0,290.0 60.0,289.5 63.9,288.7 76.6,287.3 84.2,287.3 86.8,286.3 90.0,287.8 94.8,286.8 97.8,286.3 103.4,285.5 107.0,287.0 111.2,287.0 116.0,287.5 117.6,285.0 137.6,283.7 142.0,281.1 146.0,278.3 146.6,275.6 165.4,275.9 167.4,274.1 170.0,270.4 174.1,270.1 176.1,271.6 178.9,269.5 182.2,268.3 184.1,267.3 191.5,267.2 196.4,266.8 202.3,265.4 204.2,264.4 212.1,265.8 217.3,264.9 218.9,266.4 219.6,267.8 220.3,269.3 220.8,270.7 221.3,272.2 221.9,271.4 236.2,270.6 237.0,268.3 238.0,266.0 238.7,264.8 239.7,263.8 240.8,262.6 241.3,261.7 241.8,263.1 243.1,261.8 243.6,260.6 244.3,262.1 246.1,261.0 248.0,259.9 250.4,261.3 251.4,262.8 252.5,264.2 253.3,264.9 258.2,256.1 258.7,247.9 260.1,239.3 260.6,230.8 261.0,222.9 261.6,217.2 262.4,216.0 267.3,214.7 267.9,213.4 270.0,212.1 273.2,213.6 273.7,215.0 274.7,216.5 286.0,217.9 286.6,219.4 292.5,218.7 293.4,218.0 294.5,217.2 294.9,216.4 297.5,217.9 298.3,216.4 312.5,214.9 324.5,213.2 328.0,212.4 328.8,212.2 329.2,212.2 330.5,211.1 332.2,210.0 335.1,208.7 337.9,210.1 340.6,209.0 352.9,210.5 354.4,211.9 359.2,213.4 359.7,214.9 364.9,214.5 371.4,213.0 381.8,212.6 384.6,211.6 399.3,213.0 400.3,213.0 402.2,214.5 405.2,216.0 410.1,213.3 410.6,214.8 413.2,216.2 417.1,217.7 418.6,215.6 419.8,214.5 420.5,213.7 421.0,213.0 421.5,210.1 422.7,207.2 423.7,204.0 424.1,201.7 424.6,198.7 425.1,196.8 425.7,194.8 426.3,192.9 427.2,191.0 428.4,189.8 428.9,188.5 430.3,186.8 431.4,184.9 431.9,183.9 432.6,182.9 433.9,181.6 435.9,180.7 436.5,179.9 437.0,179.1 437.5,178.4 438.0,177.7 439.2,176.7 439.8,175.7 440.8,174.7 441.3,174.0 442.7,172.6 443.1,171.6 443.6,170.6 445.0,169.9 446.8,169.2 448.1,170.6 449.8,172.1 450.4,173.5 452.3,175.0 452.8,176.5 454.0,175.5 455.5,175.4 463.5,175.0 464.1,174.8 464.6,176.3 465.1,177.7 466.2,179.2 466.9,180.7 467.4,182.1 468.9,181.9 470.7,183.3 471.6,184.8 472.9,185.1 473.5,184.3 476.8,183.5 480.2,182.7 481.7,181.6 482.2,179.2 482.7,176.2 483.2,173.2 483.7,170.5 484.2,167.8 484.6,165.1 485.1,162.3 485.9,158.9 486.4,157.2 487.3,155.5 488.6,153.7 489.1,151.8 490.5,149.8 491.0,147.8 491.5,145.2 492.0,143.4 493.1,141.6 493.9,138.8 494.4,136.9 495.3,135.4 508.2,134.6 510.0,134.6 526.9,133.8 529.2,132.7 529.9,131.5 532.1,130.4 535.1,129.3 537.3,130.8 540.4,130.4 550.4,129.6 565.1,128.3 567.6,129.7 569.2,127.5 570.8,129.0 573.5,126.4 575.6,127.9 576.7,126.6 577.6,124.9 578.4,123.4 579.1,121.5 579.9,118.1 580.5,116.1 581.0,112.7 581.6,112.5 582.4,110.3 583.2,108.4 583.7,106.3 584.1,104.8 584.9,103.8 585.5,105.2 586.1,104.0 587.2,102.7 588.0,101.7 588.4,100.5 588.9,99.4 589.4,98.5 589.9,97.7 590.4,99.1 591.4,100.6 591.9,102.0 594.2,103.5 595.1,105.0 595.6,106.4 603.1,104.7 607.0,103.5 610.2,100.2 612.4,101.7 615.5,97.3 619.9,96.5 624.6,95.5 630.4,97.0 631.0,95.9 631.6,94.8 632.1,93.7 632.6,92.7 635.6,91.4 636.1,90.6 637.0,89.9 637.5,88.8 638.0,87.7 641.1,86.9 642.4,85.3 643.0,84.4 643.5,83.6 644.5,82.7 645.0,81.8 650.4,83.3 651.9,84.7 652.7,86.2 653.3,87.7 653.8,89.1 654.8,90.6 658.4,92.0 661.2,93.5 661.7,93.2 667.2,91.8 668.0,93.3 668.6,92.6 669.3,91.8 669.8,93.3 670.3,94.7 676.0,96.2 676.7,97.7 677.4,96.8 678.0,95.1 678.8,92.7 680.3,89.5 681.2,85.1 684.9,77.6 688.0,76.7 688.8,71.1 695.0,70.0 696.6,66.9 700.1,66.1 702.2,65.3 704.0,66.8 707.0,66.0 707.9,64.7 708.6,63.6 710.3,62.8 710.8,62.1 711.3,61.6 711.8,60.8 712.8,60.1 717.4,61.6 718.7,60.8 719.3,60.0 721.4,61.5 721.9,62.9 728.3,64.4 733.5,64.0 738.3,64.0 740.0,63.0" fill="none" stroke="#58a6ff" stroke-width="2"/>
  <circle cx="60.0" cy="289.5" r="2.5" fill="#3fb950" opacity="0.7"/><circle cx="63.9" cy="288.7" r="2.5" fill="#3fb950" opacity="0.7"/><circle cx="76.6" cy="287.3" r="2.5" fill="#3fb950" opacity="0.7"/><circle cx="84.2" cy="287.3" r="2.5" fill="#3fb950" opacity="0.7"/><circle cx="86.8" cy="286.3" r="2.5" fill="#3fb950" opacity="0.7"/><circle cx="90.0" cy="287.8" r="2.5" fill="#f85149" opacity="0.7"/><circle cx="94.8" cy="286.8" r="2.5" fill="#3fb950" opacity="0.7"/><circle cx="97.8" cy="286.3" r="2.5" fill="#3fb950" opacity="0.7"/><circle cx="103.4" cy="285.5" r="2.5" fill="#3fb950" opacity="0.7"/><circle cx="107.0" cy="287.0" r="2.5" fill="#f85149" opacity="0.7"/><circle cx="111.2" cy="287.0" r="2.5" fill="#f85149" opacity="0.7"/><circle cx="116.0" cy="287.5" r="2.5" fill="#f85149" opacity="0.7"/><circle cx="117.6" cy="285.0" r="2.5" fill="#3fb950" opacity="0.7"/><circle cx="137.6" cy="283.7" r="2.5" fill="#3fb950" opacity="0.7"/><circle cx="142.0" cy="281.1" r="2.5" fill="#3fb950" opacity="0.7"/><circle cx="146.0" cy="278.3" r="2.5" fill="#3fb950" opacity="0.7"/><circle cx="146.6" cy="275.6" r="2.5" fill="#3fb950" opacity="0.7"/><circle cx="165.4" cy="275.9" r="2.5" fill="#f85149" opacity="0.7"/><circle cx="167.4" cy="274.1" r="2.5" fill="#3fb950" opacity="0.7"/><circle cx="170.0" cy="270.4" r="2.5" fill="#3fb950" opacity="0.7"/><circle cx="174.1" cy="270.1" r="2.5" fill="#3fb950" opacity="0.7"/><circle cx="176.1" cy="271.6" r="2.5" fill="#f85149" opacity="0.7"/><circle cx="178.9" cy="269.5" r="2.5" fill="#3fb950" opacity="0.7"/><circle cx="182.2" cy="268.3" r="2.5" fill="#3fb950" opacity="0.7"/><circle cx="184.1" cy="267.3" r="2.5" fill="#3fb950" opacity="0.7"/><circle cx="191.5" cy="267.2" r="2.5" fill="#3fb950" opacity="0.7"/><circle cx="196.4" cy="266.8" r="2.5" fill="#3fb950" opacity="0.7"/><circle cx="202.3" cy="265.4" r="2.5" fill="#3fb950" opacity="0.7"/><circle cx="204.2" cy="264.4" r="2.5" fill="#3fb950" opacity="0.7"/><circle cx="212.1" cy="265.8" r="2.5" fill="#f85149" opacity="0.7"/><circle cx="217.3" cy="264.9" r="2.5" fill="#3fb950" opacity="0.7"/><circle cx="218.9" cy="266.4" r="2.5" fill="#f85149" opacity="0.7"/><circle cx="219.6" cy="267.8" r="2.5" fill="#f85149" opacity="0.7"/><circle cx="220.3" cy="269.3" r="2.5" fill="#f85149" opacity="0.7"/><circle cx="220.8" cy="270.7" r="2.5" fill="#f85149" opacity="0.7"/><circle cx="221.3" cy="272.2" r="2.5" fill="#f85149" opacity="0.7"/><circle cx="221.9" cy="271.4" r="2.5" fill="#3fb950" opacity="0.7"/><circle cx="236.2" cy="270.6" r="2.5" fill="#3fb950" opacity="0.7"/><circle cx="237.0" cy="268.3" r="2.5" fill="#3fb950" opacity="0.7"/><circle cx="238.0" cy="266.0" r="2.5" fill="#3fb950" opacity="0.7"/><circle cx="238.7" cy="264.8" r="2.5" fill="#3fb950" opacity="0.7"/><circle cx="239.7" cy="263.8" r="2.5" fill="#3fb950" opacity="0.7"/><circle cx="240.8" cy="262.6" r="2.5" fill="#3fb950" opacity="0.7"/><circle cx="241.3" cy="261.7" r="2.5" fill="#3fb950" opacity="0.7"/><circle cx="241.8" cy="263.1" r="2.5" fill="#f85149" opacity="0.7"/><circle cx="243.1" cy="261.8" r="2.5" fill="#3fb950" opacity="0.7"/><circle cx="243.6" cy="260.6" r="2.5" fill="#3fb950" opacity="0.7"/><circle cx="244.3" cy="262.1" r="2.5" fill="#f85149" opacity="0.7"/><circle cx="246.1" cy="261.0" r="2.5" fill="#3fb950" opacity="0.7"/><circle cx="248.0" cy="259.9" r="2.5" fill="#3fb950" opacity="0.7"/><circle cx="250.4" cy="261.3" r="2.5" fill="#f85149" opacity="0.7"/><circle cx="251.4" cy="262.8" r="2.5" fill="#f85149" opacity="0.7"/><circle cx="252.5" cy="264.2" r="2.5" fill="#f85149" opacity="0.7"/><circle cx="253.3" cy="264.9" r="2.5" fill="#f85149" opacity="0.7"/><circle cx="258.2" cy="256.1" r="2.5" fill="#3fb950" opacity="0.7"/><circle cx="258.7" cy="247.9" r="2.5" fill="#3fb950" opacity="0.7"/><circle cx="260.1" cy="239.3" r="2.5" fill="#3fb950" opacity="0.7"/><circle cx="260.6" cy="230.8" r="2.5" fill="#3fb950" opacity="0.7"/><circle cx="261.0" cy="222.9" r="2.5" fill="#3fb950" opacity="0.7"/><circle cx="261.6" cy="217.2" r="2.5" fill="#3fb950" opacity="0.7"/><circle cx="262.4" cy="216.0" r="2.5" fill="#3fb950" opacity="0.7"/><circle cx="267.3" cy="214.7" r="2.5" fill="#3fb950" opacity="0.7"/><circle cx="267.9" cy="213.4" r="2.5" fill="#3fb950" opacity="0.7"/><circle cx="270.0" cy="212.1" r="2.5" fill="#3fb950" opacity="0.7"/><circle cx="273.2" cy="213.6" r="2.5" fill="#f85149" opacity="0.7"/><circle cx="273.7" cy="215.0" r="2.5" fill="#f85149" opacity="0.7"/><circle cx="274.7" cy="216.5" r="2.5" fill="#f85149" opacity="0.7"/><circle cx="286.0" cy="217.9" r="2.5" fill="#f85149" opacity="0.7"/><circle cx="286.6" cy="219.4" r="2.5" fill="#f85149" opacity="0.7"/><circle cx="292.5" cy="218.7" r="2.5" fill="#3fb950" opacity="0.7"/><circle cx="293.4" cy="218.0" r="2.5" fill="#3fb950" opacity="0.7"/><circle cx="294.5" cy="217.2" r="2.5" fill="#3fb950" opacity="0.7"/><circle cx="294.9" cy="216.4" r="2.5" fill="#3fb950" opacity="0.7"/><circle cx="297.5" cy="217.9" r="2.5" fill="#f85149" opacity="0.7"/><circle cx="298.3" cy="216.4" r="2.5" fill="#3fb950" opacity="0.7"/><circle cx="312.5" cy="214.9" r="2.5" fill="#3fb950" opacity="0.7"/><circle cx="324.5" cy="213.2" r="2.5" fill="#3fb950" opacity="0.7"/><circle cx="328.0" cy="212.4" r="2.5" fill="#3fb950" opacity="0.7"/><circle cx="328.8" cy="212.2" r="2.5" fill="#3fb950" opacity="0.7"/><circle cx="329.2" cy="212.2" r="2.5" fill="#3fb950" opacity="0.7"/><circle cx="330.5" cy="211.1" r="2.5" fill="#3fb950" opacity="0.7"/><circle cx="332.2" cy="210.0" r="2.5" fill="#3fb950" opacity="0.7"/><circle cx="335.1" cy="208.7" r="2.5" fill="#3fb950" opacity="0.7"/><circle cx="337.9" cy="210.1" r="2.5" fill="#f85149" opacity="0.7"/><circle cx="340.6" cy="209.0" r="2.5" fill="#3fb950" opacity="0.7"/><circle cx="352.9" cy="210.5" r="2.5" fill="#f85149" opacity="0.7"/><circle cx="354.4" cy="211.9" r="2.5" fill="#f85149" opacity="0.7"/><circle cx="359.2" cy="213.4" r="2.5" fill="#f85149" opacity="0.7"/><circle cx="359.7" cy="214.9" r="2.5" fill="#f85149" opacity="0.7"/><circle cx="364.9" cy="214.5" r="2.5" fill="#3fb950" opacity="0.7"/><circle cx="371.4" cy="213.0" r="2.5" fill="#3fb950" opacity="0.7"/><circle cx="381.8" cy="212.6" r="2.5" fill="#3fb950" opacity="0.7"/><circle cx="384.6" cy="211.6" r="2.5" fill="#3fb950" opacity="0.7"/><circle cx="399.3" cy="213.0" r="2.5" fill="#f85149" opacity="0.7"/><circle cx="400.3" cy="213.0" r="2.5" fill="#f85149" opacity="0.7"/><circle cx="402.2" cy="214.5" r="2.5" fill="#f85149" opacity="0.7"/><circle cx="405.2" cy="216.0" r="2.5" fill="#f85149" opacity="0.7"/><circle cx="410.1" cy="213.3" r="2.5" fill="#3fb950" opacity="0.7"/><circle cx="410.6" cy="214.8" r="2.5" fill="#f85149" opacity="0.7"/><circle cx="413.2" cy="216.2" r="2.5" fill="#f85149" opacity="0.7"/><circle cx="417.1" cy="217.7" r="2.5" fill="#f85149" opacity="0.7"/><circle cx="418.6" cy="215.6" r="2.5" fill="#3fb950" opacity="0.7"/><circle cx="419.8" cy="214.5" r="2.5" fill="#3fb950" opacity="0.7"/><circle cx="420.5" cy="213.7" r="2.5" fill="#3fb950" opacity="0.7"/><circle cx="421.0" cy="213.0" r="2.5" fill="#3fb950" opacity="0.7"/><circle cx="421.5" cy="210.1" r="2.5" fill="#3fb950" opacity="0.7"/><circle cx="422.7" cy="207.2" r="2.5" fill="#3fb950" opacity="0.7"/><circle cx="423.7" cy="204.0" r="2.5" fill="#3fb950" opacity="0.7"/><circle cx="424.1" cy="201.7" r="2.5" fill="#3fb950" opacity="0.7"/><circle cx="424.6" cy="198.7" r="2.5" fill="#3fb950" opacity="0.7"/><circle cx="425.1" cy="196.8" r="2.5" fill="#3fb950" opacity="0.7"/><circle cx="425.7" cy="194.8" r="2.5" fill="#3fb950" opacity="0.7"/><circle cx="426.3" cy="192.9" r="2.5" fill="#3fb950" opacity="0.7"/><circle cx="427.2" cy="191.0" r="2.5" fill="#3fb950" opacity="0.7"/><circle cx="428.4" cy="189.8" r="2.5" fill="#3fb950" opacity="0.7"/><circle cx="428.9" cy="188.5" r="2.5" fill="#3fb950" opacity="0.7"/><circle cx="430.3" cy="186.8" r="2.5" fill="#3fb950" opacity="0.7"/><circle cx="431.4" cy="184.9" r="2.5" fill="#3fb950" opacity="0.7"/><circle cx="431.9" cy="183.9" r="2.5" fill="#3fb950" opacity="0.7"/><circle cx="432.6" cy="182.9" r="2.5" fill="#3fb950" opacity="0.7"/><circle cx="433.9" cy="181.6" r="2.5" fill="#3fb950" opacity="0.7"/><circle cx="435.9" cy="180.7" r="2.5" fill="#3fb950" opacity="0.7"/><circle cx="436.5" cy="179.9" r="2.5" fill="#3fb950" opacity="0.7"/><circle cx="437.0" cy="179.1" r="2.5" fill="#3fb950" opacity="0.7"/><circle cx="437.5" cy="178.4" r="2.5" fill="#3fb950" opacity="0.7"/><circle cx="438.0" cy="177.7" r="2.5" fill="#3fb950" opacity="0.7"/><circle cx="439.2" cy="176.7" r="2.5" fill="#3fb950" opacity="0.7"/><circle cx="439.8" cy="175.7" r="2.5" fill="#3fb950" opacity="0.7"/><circle cx="440.8" cy="174.7" r="2.5" fill="#3fb950" opacity="0.7"/><circle cx="441.3" cy="174.0" r="2.5" fill="#3fb950" opacity="0.7"/><circle cx="442.7" cy="172.6" r="2.5" fill="#3fb950" opacity="0.7"/><circle cx="443.1" cy="171.6" r="2.5" fill="#3fb950" opacity="0.7"/><circle cx="443.6" cy="170.6" r="2.5" fill="#3fb950" opacity="0.7"/><circle cx="445.0" cy="169.9" r="2.5" fill="#3fb950" opacity="0.7"/><circle cx="446.8" cy="169.2" r="2.5" fill="#3fb950" opacity="0.7"/><circle cx="448.1" cy="170.6" r="2.5" fill="#f85149" opacity="0.7"/><circle cx="449.8" cy="172.1" r="2.5" fill="#f85149" opacity="0.7"/><circle cx="450.4" cy="173.5" r="2.5" fill="#f85149" opacity="0.7"/><circle cx="452.3" cy="175.0" r="2.5" fill="#f85149" opacity="0.7"/><circle cx="452.8" cy="176.5" r="2.5" fill="#f85149" opacity="0.7"/><circle cx="454.0" cy="175.5" r="2.5" fill="#3fb950" opacity="0.7"/><circle cx="455.5" cy="175.4" r="2.5" fill="#3fb950" opacity="0.7"/><circle cx="463.5" cy="175.0" r="2.5" fill="#3fb950" opacity="0.7"/><circle cx="464.1" cy="174.8" r="2.5" fill="#3fb950" opacity="0.7"/><circle cx="464.6" cy="176.3" r="2.5" fill="#f85149" opacity="0.7"/><circle cx="465.1" cy="177.7" r="2.5" fill="#f85149" opacity="0.7"/><circle cx="466.2" cy="179.2" r="2.5" fill="#f85149" opacity="0.7"/><circle cx="466.9" cy="180.7" r="2.5" fill="#f85149" opacity="0.7"/><circle cx="467.4" cy="182.1" r="2.5" fill="#f85149" opacity="0.7"/><circle cx="468.9" cy="181.9" r="2.5" fill="#3fb950" opacity="0.7"/><circle cx="470.7" cy="183.3" r="2.5" fill="#f85149" opacity="0.7"/><circle cx="471.6" cy="184.8" r="2.5" fill="#f85149" opacity="0.7"/><circle cx="472.9" cy="185.1" r="2.5" fill="#f85149" opacity="0.7"/><circle cx="473.5" cy="184.3" r="2.5" fill="#3fb950" opacity="0.7"/><circle cx="476.8" cy="183.5" r="2.5" fill="#3fb950" opacity="0.7"/><circle cx="480.2" cy="182.7" r="2.5" fill="#3fb950" opacity="0.7"/><circle cx="481.7" cy="181.6" r="2.5" fill="#3fb950" opacity="0.7"/><circle cx="482.2" cy="179.2" r="2.5" fill="#3fb950" opacity="0.7"/><circle cx="482.7" cy="176.2" r="2.5" fill="#3fb950" opacity="0.7"/><circle cx="483.2" cy="173.2" r="2.5" fill="#3fb950" opacity="0.7"/><circle cx="483.7" cy="170.5" r="2.5" fill="#3fb950" opacity="0.7"/><circle cx="484.2" cy="167.8" r="2.5" fill="#3fb950" opacity="0.7"/><circle cx="484.6" cy="165.1" r="2.5" fill="#3fb950" opacity="0.7"/><circle cx="485.1" cy="162.3" r="2.5" fill="#3fb950" opacity="0.7"/><circle cx="485.9" cy="158.9" r="2.5" fill="#3fb950" opacity="0.7"/><circle cx="486.4" cy="157.2" r="2.5" fill="#3fb950" opacity="0.7"/><circle cx="487.3" cy="155.5" r="2.5" fill="#3fb950" opacity="0.7"/><circle cx="488.6" cy="153.7" r="2.5" fill="#3fb950" opacity="0.7"/><circle cx="489.1" cy="151.8" r="2.5" fill="#3fb950" opacity="0.7"/><circle cx="490.5" cy="149.8" r="2.5" fill="#3fb950" opacity="0.7"/><circle cx="491.0" cy="147.8" r="2.5" fill="#3fb950" opacity="0.7"/><circle cx="491.5" cy="145.2" r="2.5" fill="#3fb950" opacity="0.7"/><circle cx="492.0" cy="143.4" r="2.5" fill="#3fb950" opacity="0.7"/><circle cx="493.1" cy="141.6" r="2.5" fill="#3fb950" opacity="0.7"/><circle cx="493.9" cy="138.8" r="2.5" fill="#3fb950" opacity="0.7"/><circle cx="494.4" cy="136.9" r="2.5" fill="#3fb950" opacity="0.7"/><circle cx="495.3" cy="135.4" r="2.5" fill="#3fb950" opacity="0.7"/><circle cx="508.2" cy="134.6" r="2.5" fill="#3fb950" opacity="0.7"/><circle cx="510.0" cy="134.6" r="2.5" fill="#3fb950" opacity="0.7"/><circle cx="526.9" cy="133.8" r="2.5" fill="#3fb950" opacity="0.7"/><circle cx="529.2" cy="132.7" r="2.5" fill="#3fb950" opacity="0.7"/><circle cx="529.9" cy="131.5" r="2.5" fill="#3fb950" opacity="0.7"/><circle cx="532.1" cy="130.4" r="2.5" fill="#3fb950" opacity="0.7"/><circle cx="535.1" cy="129.3" r="2.5" fill="#3fb950" opacity="0.7"/><circle cx="537.3" cy="130.8" r="2.5" fill="#f85149" opacity="0.7"/><circle cx="540.4" cy="130.4" r="2.5" fill="#3fb950" opacity="0.7"/><circle cx="550.4" cy="129.6" r="2.5" fill="#3fb950" opacity="0.7"/><circle cx="565.1" cy="128.3" r="2.5" fill="#3fb950" opacity="0.7"/><circle cx="567.6" cy="129.7" r="2.5" fill="#f85149" opacity="0.7"/><circle cx="569.2" cy="127.5" r="2.5" fill="#3fb950" opacity="0.7"/><circle cx="570.8" cy="129.0" r="2.5" fill="#f85149" opacity="0.7"/><circle cx="573.5" cy="126.4" r="2.5" fill="#3fb950" opacity="0.7"/><circle cx="575.6" cy="127.9" r="2.5" fill="#f85149" opacity="0.7"/><circle cx="576.7" cy="126.6" r="2.5" fill="#3fb950" opacity="0.7"/><circle cx="577.6" cy="124.9" r="2.5" fill="#3fb950" opacity="0.7"/><circle cx="578.4" cy="123.4" r="2.5" fill="#3fb950" opacity="0.7"/><circle cx="579.1" cy="121.5" r="2.5" fill="#3fb950" opacity="0.7"/><circle cx="579.9" cy="118.1" r="2.5" fill="#3fb950" opacity="0.7"/><circle cx="580.5" cy="116.1" r="2.5" fill="#3fb950" opacity="0.7"/><circle cx="581.0" cy="112.7" r="2.5" fill="#3fb950" opacity="0.7"/><circle cx="581.6" cy="112.5" r="2.5" fill="#3fb950" opacity="0.7"/><circle cx="582.4" cy="110.3" r="2.5" fill="#3fb950" opacity="0.7"/><circle cx="583.2" cy="108.4" r="2.5" fill="#3fb950" opacity="0.7"/><circle cx="583.7" cy="106.3" r="2.5" fill="#3fb950" opacity="0.7"/><circle cx="584.1" cy="104.8" r="2.5" fill="#3fb950" opacity="0.7"/><circle cx="584.9" cy="103.8" r="2.5" fill="#3fb950" opacity="0.7"/><circle cx="585.5" cy="105.2" r="2.5" fill="#f85149" opacity="0.7"/><circle cx="586.1" cy="104.0" r="2.5" fill="#3fb950" opacity="0.7"/><circle cx="587.2" cy="102.7" r="2.5" fill="#3fb950" opacity="0.7"/><circle cx="588.0" cy="101.7" r="2.5" fill="#3fb950" opacity="0.7"/><circle cx="588.4" cy="100.5" r="2.5" fill="#3fb950" opacity="0.7"/><circle cx="588.9" cy="99.4" r="2.5" fill="#3fb950" opacity="0.7"/><circle cx="589.4" cy="98.5" r="2.5" fill="#3fb950" opacity="0.7"/><circle cx="589.9" cy="97.7" r="2.5" fill="#3fb950" opacity="0.7"/><circle cx="590.4" cy="99.1" r="2.5" fill="#f85149" opacity="0.7"/><circle cx="591.4" cy="100.6" r="2.5" fill="#f85149" opacity="0.7"/><circle cx="591.9" cy="102.0" r="2.5" fill="#f85149" opacity="0.7"/><circle cx="594.2" cy="103.5" r="2.5" fill="#f85149" opacity="0.7"/><circle cx="595.1" cy="105.0" r="2.5" fill="#f85149" opacity="0.7"/><circle cx="595.6" cy="106.4" r="2.5" fill="#f85149" opacity="0.7"/><circle cx="603.1" cy="104.7" r="2.5" fill="#3fb950" opacity="0.7"/><circle cx="607.0" cy="103.5" r="2.5" fill="#3fb950" opacity="0.7"/><circle cx="610.2" cy="100.2" r="2.5" fill="#3fb950" opacity="0.7"/><circle cx="612.4" cy="101.7" r="2.5" fill="#f85149" opacity="0.7"/><circle cx="615.5" cy="97.3" r="2.5" fill="#3fb950" opacity="0.7"/><circle cx="619.9" cy="96.5" r="2.5" fill="#3fb950" opacity="0.7"/><circle cx="624.6" cy="95.5" r="2.5" fill="#3fb950" opacity="0.7"/><circle cx="630.4" cy="97.0" r="2.5" fill="#f85149" opacity="0.7"/><circle cx="631.0" cy="95.9" r="2.5" fill="#3fb950" opacity="0.7"/><circle cx="631.6" cy="94.8" r="2.5" fill="#3fb950" opacity="0.7"/><circle cx="632.1" cy="93.7" r="2.5" fill="#3fb950" opacity="0.7"/><circle cx="632.6" cy="92.7" r="2.5" fill="#3fb950" opacity="0.7"/><circle cx="635.6" cy="91.4" r="2.5" fill="#3fb950" opacity="0.7"/><circle cx="636.1" cy="90.6" r="2.5" fill="#3fb950" opacity="0.7"/><circle cx="637.0" cy="89.9" r="2.5" fill="#3fb950" opacity="0.7"/><circle cx="637.5" cy="88.8" r="2.5" fill="#3fb950" opacity="0.7"/><circle cx="638.0" cy="87.7" r="2.5" fill="#3fb950" opacity="0.7"/><circle cx="641.1" cy="86.9" r="2.5" fill="#3fb950" opacity="0.7"/><circle cx="642.4" cy="85.3" r="2.5" fill="#3fb950" opacity="0.7"/><circle cx="643.0" cy="84.4" r="2.5" fill="#3fb950" opacity="0.7"/><circle cx="643.5" cy="83.6" r="2.5" fill="#3fb950" opacity="0.7"/><circle cx="644.5" cy="82.7" r="2.5" fill="#3fb950" opacity="0.7"/><circle cx="645.0" cy="81.8" r="2.5" fill="#3fb950" opacity="0.7"/><circle cx="650.4" cy="83.3" r="2.5" fill="#f85149" opacity="0.7"/><circle cx="651.9" cy="84.7" r="2.5" fill="#f85149" opacity="0.7"/><circle cx="652.7" cy="86.2" r="2.5" fill="#f85149" opacity="0.7"/><circle cx="653.3" cy="87.7" r="2.5" fill="#f85149" opacity="0.7"/><circle cx="653.8" cy="89.1" r="2.5" fill="#f85149" opacity="0.7"/><circle cx="654.8" cy="90.6" r="2.5" fill="#f85149" opacity="0.7"/><circle cx="658.4" cy="92.0" r="2.5" fill="#f85149" opacity="0.7"/><circle cx="661.2" cy="93.5" r="2.5" fill="#f85149" opacity="0.7"/><circle cx="661.7" cy="93.2" r="2.5" fill="#3fb950" opacity="0.7"/><circle cx="667.2" cy="91.8" r="2.5" fill="#3fb950" opacity="0.7"/><circle cx="668.0" cy="93.3" r="2.5" fill="#f85149" opacity="0.7"/><circle cx="668.6" cy="92.6" r="2.5" fill="#3fb950" opacity="0.7"/><circle cx="669.3" cy="91.8" r="2.5" fill="#3fb950" opacity="0.7"/><circle cx="669.8" cy="93.3" r="2.5" fill="#f85149" opacity="0.7"/><circle cx="670.3" cy="94.7" r="2.5" fill="#f85149" opacity="0.7"/><circle cx="676.0" cy="96.2" r="2.5" fill="#f85149" opacity="0.7"/><circle cx="676.7" cy="97.7" r="2.5" fill="#f85149" opacity="0.7"/><circle cx="677.4" cy="96.8" r="2.5" fill="#3fb950" opacity="0.7"/><circle cx="678.0" cy="95.1" r="2.5" fill="#3fb950" opacity="0.7"/><circle cx="678.8" cy="92.7" r="2.5" fill="#3fb950" opacity="0.7"/><circle cx="680.3" cy="89.5" r="2.5" fill="#3fb950" opacity="0.7"/><circle cx="681.2" cy="85.1" r="2.5" fill="#3fb950" opacity="0.7"/><circle cx="684.9" cy="77.6" r="2.5" fill="#3fb950" opacity="0.7"/><circle cx="688.0" cy="76.7" r="2.5" fill="#3fb950" opacity="0.7"/><circle cx="688.8" cy="71.1" r="2.5" fill="#3fb950" opacity="0.7"/><circle cx="695.0" cy="70.0" r="2.5" fill="#3fb950" opacity="0.7"/><circle cx="696.6" cy="66.9" r="2.5" fill="#3fb950" opacity="0.7"/><circle cx="700.1" cy="66.1" r="2.5" fill="#3fb950" opacity="0.7"/><circle cx="702.2" cy="65.3" r="2.5" fill="#3fb950" opacity="0.7"/><circle cx="704.0" cy="66.8" r="2.5" fill="#f85149" opacity="0.7"/><circle cx="707.0" cy="66.0" r="2.5" fill="#3fb950" opacity="0.7"/><circle cx="707.9" cy="64.7" r="2.5" fill="#3fb950" opacity="0.7"/><circle cx="708.6" cy="63.6" r="2.5" fill="#3fb950" opacity="0.7"/><circle cx="710.3" cy="62.8" r="2.5" fill="#3fb950" opacity="0.7"/><circle cx="710.8" cy="62.1" r="2.5" fill="#3fb950" opacity="0.7"/><circle cx="711.3" cy="61.6" r="2.5" fill="#3fb950" opacity="0.7"/><circle cx="711.8" cy="60.8" r="2.5" fill="#3fb950" opacity="0.7"/><circle cx="712.8" cy="60.1" r="2.5" fill="#3fb950" opacity="0.7"/><circle cx="717.4" cy="61.6" r="2.5" fill="#f85149" opacity="0.7"/><circle cx="718.7" cy="60.8" r="2.5" fill="#3fb950" opacity="0.7"/><circle cx="719.3" cy="60.0" r="2.5" fill="#3fb950" opacity="0.7"/><circle cx="721.4" cy="61.5" r="2.5" fill="#f85149" opacity="0.7"/><circle cx="721.9" cy="62.9" r="2.5" fill="#f85149" opacity="0.7"/><circle cx="728.3" cy="64.4" r="2.5" fill="#f85149" opacity="0.7"/><circle cx="733.5" cy="64.0" r="2.5" fill="#3fb950" opacity="0.7"/><circle cx="738.3" cy="64.0" r="2.5" fill="#3fb950" opacity="0.7"/><circle cx="740.0" cy="63.0" r="2.5" fill="#3fb950" opacity="0.7"/>
  <line x1="60" y1="290" x2="740" y2="290" stroke="#30363d" stroke-width="1" stroke-dasharray="4,4"/>
  <circle cx="730" cy="45" r="3" fill="#3fb950"/><text x="740" y="49" fill="#8b949e" font-size="10">Win</text>
  <circle cx="730" cy="60" r="3" fill="#f85149"/><text x="740" y="64" fill="#8b949e" font-size="10">Loss</text>
</svg>