<svg xmlns="http://www.w3.org/2000/svg" viewBox="0 0 800 300" font-family="'Segoe UI', system-ui, sans-serif">
  <rect width="800" height="300" fill="#0d1117" rx="8"/>
  <text x="400" y="22" text-anchor="middle" fill="#e6edf3" font-size="16" font-weight="600">Quarterly PnL — All 8 Quarters Positive</text>
  <rect x="64" y="189.06801210280037" width="77" height="10.931987897199638" fill="#3fb950" fill-opacity="0.6" rx="2"/><text x="102.5" y="285" text-anchor="middle" fill="#8b949e" font-size="9">2024-Q2</text><text x="102.5" y="184.06801210280037" text-anchor="middle" fill="#3fb950" font-size="10" font-weight="600">+17%</text><text x="102.5" y="297" text-anchor="middle" fill="#484f58" font-size="8">13t</text><rect x="149" y="170.48079722286238" width="77" height="29.519202777137618" fill="#3fb950" fill-opacity="0.6" rx="2"/><text x="187.5" y="285" text-anchor="middle" fill="#8b949e" font-size="9">2024-Q3</text><text x="187.5" y="165.48079722286238" text-anchor="middle" fill="#3fb950" font-size="10" font-weight="600">+46%</text><text x="187.5" y="297" text-anchor="middle" fill="#484f58" font-size="8">24t</text><rect x="234" y="80" width="77" height="120" fill="#3fb950" fill-opacity="0.6" rx="2"/><text x="272.5" y="285" text-anchor="middle" fill="#8b949e" font-size="9">2024-Q4</text><text x="272.5" y="75" text-anchor="middle" fill="#3fb950" font-size="10" font-weight="600">+189%</text><text x="272.5" y="297" text-anchor="middle" fill="#484f58" font-size="8">38t</text><rect x="319" y="189.49392095616238" width="77" height="10.50607904383762" fill="#3fb950" fill-opacity="0.6" rx="2"/><text x="357.5" y="285" text-anchor="middle" fill="#8b949e" font-size="9">2025-Q1</text><text x="357.5" y="184.49392095616238" text-anchor="middle" fill="#3fb950" font-size="10" font-weight="600">+17%</text><text x="357.5" y="297" text-anchor="middle" fill="#484f58" font-size="8">18t</text><rect x="404" y="85.31406707373297" width="77" height="114.68593292626703" fill="#3fb950" fill-opacity="0.6" rx="2"/><text x="442.5" y="285" text-anchor="middle" fill="#8b949e" font-size="9">2025-Q2</text><text x="442.5" y="80.31406707373297" text-anchor="middle" fill="#3fb950" font-size="10" font-weight="600">+180%</text><text x="442.5" y="297" text-anchor="middle" fill="#484f58" font-size="8">72t</text><rect x="489" y="129.10188853834396" width="77" height="70.89811146165604" fill="#3fb950" fill-opacity="0.6" rx="2"/><text x="527.5" y="285" text-anchor="middle" fill="#8b949e" font-size="9">2025-Q3</text><text x="527.5" y="124.10188853834396" text-anchor="middle" fill="#3fb950" font-size="10" font-weight="600">+111%</text><text x="527.5" y="297" text-anchor="middle" fill="#484f58" font-size="8">27t</text><rect x="574" y="127.60267880019617" width="77" height="72.39732119980383" fill="#3fb950" fill-opacity="0.6" rx="2"/><text x="612.5" y="285" text-anchor="middle" fill="#8b949e" font-size="9">2025-Q4</text><text x="612.5" y="122.60267880019617" text-anchor="middle" fill="#3fb950" font-size="10" font-weight="600">+114%</text><text x="612.5" y="297" text-anchor="middle" fill="#484f58" font-size="8">60t</text><rect x="659" y="134.21543986540397" width="77" height="65.78456013459603" fill="#3fb950" fill-opacity="0.6" rx="2"/><text x="697.5" y="285" text-anchor="middle" fill="#8b949e" font-size="9">2026-Q1</text><text x="697.5" y="129.21543986540397" text-anchor="middle" fill="#3fb950" font-size="10" font-weight="600">+103%</text><text x="697.5" y="297" text-anchor="middle" fill="#484f58" font-size="8">38t</text>
  <polyline points="102.5,197.3483383036126 187.5,190.1881639558089 272.5,161.08097809366564 357.5,158.53262479857105 442.5,130.71441841975314 527.5,113.51738085650837 612.5,95.95669515580857 697.5,80" fill="none" stroke="#58a6ff" stroke-width="1.5" stroke-dasharray="4,3" opacity="0.6"/>
</svg>